<svg width="16" height="18" viewBox="0 0 16 18" fill="none" xmlns="http://www.w3.org/2000/svg">
<circle cx="8" cy="9" r="8" fill="#D52A33"/>
<path d="M8.99805 6.08105V12H7.91846V6.08105H8.99805ZM8.46631 3.84131C8.63818 3.84131 8.78499 3.89144 8.90674 3.9917C9.03206 4.09196 9.09473 4.25488 9.09473 4.48047C9.09473 4.70605 9.03206 4.87077 8.90674 4.97461C8.78499 5.07487 8.63818 5.125 8.46631 5.125C8.29085 5.125 8.14225 5.07487 8.02051 4.97461C7.90234 4.87077 7.84326 4.70605 7.84326 4.48047C7.84326 4.25488 7.90234 4.09196 8.02051 3.9917C8.14225 3.89144 8.29085 3.84131 8.46631 3.84131Z" fill="white"/>
</svg>
