<svg width="31" height="30" viewBox="0 0 31 30" fill="none" xmlns="http://www.w3.org/2000/svg">
<path d="M7.61015 0H7.74257C8.31738 0.0398437 8.8412 0.345117 9.24433 0.743555C9.99784 1.44258 10.5305 2.33262 11.0812 3.18984C11.6654 4.09746 12.2426 5.03262 12.5273 6.0832C12.6914 6.72832 12.6949 7.43437 12.4207 8.05078C12.1992 8.57344 11.7973 8.99121 11.3689 9.35273C10.9769 9.68027 10.6154 10.0465 10.19 10.3324C9.84433 10.5861 9.4746 10.824 9.21855 11.1762C8.87226 11.6238 8.74687 12.2121 8.80605 12.7688C8.88632 13.6049 9.25605 14.3771 9.65624 15.1037C10.5539 16.6336 11.7123 17.9889 12.9158 19.2844C13.6892 20.0766 14.4984 20.8447 15.4254 21.4582C16.0975 21.8795 16.8492 22.2621 17.6642 22.241C18.2684 22.2334 18.8326 21.924 19.2404 21.4916C19.5949 21.1248 19.9459 20.7539 20.3432 20.4316C20.8312 20.0051 21.3129 19.5369 21.9363 19.3148C22.6178 19.0535 23.3853 19.1244 24.0533 19.391C24.975 19.7689 25.7701 20.3854 26.5213 21.0275C27.0557 21.4893 27.5982 21.9428 28.108 22.4326C28.6131 22.9518 29.124 23.5084 29.3678 24.2039C29.5553 24.7172 29.4937 25.3096 29.2019 25.7713C28.7906 26.424 28.1238 26.8465 27.576 27.3727C25.9096 29.0338 23.5752 29.9736 21.2267 30H21.0855C19.9517 29.99 18.8215 29.8061 17.7398 29.465C15.215 28.6664 12.9891 27.1395 11.0168 25.4027C9.58886 24.1336 8.2787 22.7373 7.0582 21.2689C5.34902 19.21 3.81152 16.9793 2.74394 14.5166C1.98281 12.7301 1.48359 10.8023 1.5287 8.84941C1.55741 7.33359 1.91718 5.8166 2.63495 4.47715C3.23378 3.38965 4.0289 2.40117 5.01445 1.63945C5.23417 1.47187 5.43749 1.2832 5.64609 1.10273C6.20624 0.601172 6.81503 0.0363281 7.61015 0Z" fill="#D52A33"/>
</svg>
