<svg width="26" height="26" viewBox="0 0 26 26" fill="none" xmlns="http://www.w3.org/2000/svg">
<path d="M12.82 0H13.179C14.965 0.0335156 16.7398 0.553008 18.2536 1.50363C19.7658 2.44563 21.0191 3.79945 21.8377 5.3823C22.5222 6.69602 22.9036 8.16613 22.9462 9.64691C23.03 11.9737 22.248 14.3096 20.8063 16.1352C18.3485 19.4233 15.8907 22.7119 13.4329 26H12.5706C10.0504 22.6352 7.53618 19.2659 5.01895 15.8991C4.15618 14.7448 3.54985 13.4007 3.25786 11.99C2.8902 10.235 3.00802 8.38094 3.5986 6.68789C4.3202 4.59926 5.76645 2.77469 7.62555 1.58234C9.16473 0.582969 10.9868 0.0380859 12.82 0ZM12.5178 6.68789C11.7866 6.79352 11.098 7.15812 10.5952 7.69895C10.0107 8.31086 9.68219 9.15789 9.70047 10.0044C9.70809 10.8393 10.0549 11.6634 10.642 12.2566C11.0964 12.7263 11.6936 13.0543 12.334 13.1854C13.0292 13.3301 13.7716 13.2417 14.4125 12.935C15.192 12.5663 15.8166 11.8803 16.106 11.0673C16.3645 10.3548 16.365 9.55246 16.1065 8.84C15.8384 8.08387 15.2798 7.43742 14.576 7.05453C13.9544 6.71074 13.2191 6.5843 12.5178 6.68789Z" fill="#D52A33"/>
</svg>
