<svg width="31" height="30" viewBox="0 0 31 30" fill="none" xmlns="http://www.w3.org/2000/svg">
<g clip-path="url(#clip0_22_107)">
<path d="M2.00781 4.71612C2.37812 4.54503 2.78184 4.44776 3.19082 4.45362C11.0822 4.45245 18.9736 4.45362 26.865 4.45303C27.5787 4.46124 28.3328 4.37745 28.9926 4.71612C25.3832 8.31026 21.7709 11.9015 18.1603 15.4944C17.6676 15.9591 17.234 16.5198 16.6041 16.8075C15.8641 17.1538 14.9576 17.1298 14.2439 16.7284C13.9896 16.6036 13.7811 16.4079 13.5713 16.2228C9.71699 12.3866 5.86094 8.55284 2.00781 4.71612Z" fill="#D52A33"/>
<path d="M0.7625 5.96069C3.79707 8.97183 6.82871 11.9865 9.86152 14.9999C6.82871 18.0134 3.79707 21.0281 0.7625 24.0392C0.610156 23.7076 0.516406 23.3496 0.5 22.9845V7.02241C0.514648 6.65503 0.610742 6.29468 0.7625 5.96069Z" fill="#D52A33"/>
<path d="M21.1387 14.9999C24.1715 11.9865 27.2031 8.97183 30.2377 5.96069C30.3889 6.29233 30.4838 6.64917 30.5002 7.01421V22.9775C30.4855 23.3455 30.3895 23.7052 30.2377 24.0392C27.2031 21.0281 24.1715 18.0134 21.1387 14.9999Z" fill="#D52A33"/>
<path d="M2.0083 25.2837C5.03877 22.2691 8.07276 19.2568 11.1056 16.2439C11.5649 16.6968 12.0138 17.1621 12.479 17.6091C13.2542 18.3509 14.3112 18.7869 15.3835 18.8109C16.4358 18.8425 17.4952 18.4787 18.3026 17.8025C18.8599 17.3115 19.3614 16.7607 19.8946 16.2439C22.9274 19.2568 25.9614 22.2691 28.9919 25.2837C28.621 25.4554 28.2161 25.5521 27.8066 25.5462C19.6028 25.5474 11.3997 25.5468 3.19658 25.5462C2.78584 25.5527 2.37979 25.4554 2.0083 25.2837Z" fill="#D52A33"/>
</g>
<defs>
<clipPath id="clip0_22_107">
<rect width="30" height="30" fill="white" transform="translate(0.5)"/>
</clipPath>
</defs>
</svg>
