<svg width="14" height="11" viewBox="0 0 14 11" fill="none" xmlns="http://www.w3.org/2000/svg">
<path d="M13.2 6.3024H3.8C3.3 6.3024 3 5.9961 3 5.5877C3 5.17931 3.3 4.87301 3.7 4.87301H13.2C13.6 4.87301 13.9 5.17931 13.9 5.5877C13.9 5.9961 13.7 6.3024 13.2 6.3024ZM14 1.29955C14 0.789055 13.7 0.482758 13.3 0.482758H0.8C0.3 0.482758 0 0.891154 0 1.29955C0 1.70795 0.3 2.01424 0.7 2.01424H13.2C13.7 2.01424 14 1.70795 14 1.29955ZM14 9.87586C14 9.46747 13.7 9.16117 13.3 9.16117H7.8C7.4 9.16117 7.1 9.46747 7.1 9.87586C7 10.2843 7.4 10.6927 7.8 10.6927H13.3C13.7 10.6927 14 10.3864 14 9.87586Z" fill="#D52A33"/>
</svg>
