<svg width="229" height="229" viewBox="0 0 229 229" fill="none" xmlns="http://www.w3.org/2000/svg">
<path d="M225.785 209.694L183.33 167.551C199.81 146.989 207.79 120.888 205.631 94.6178C203.472 68.3472 191.337 43.9029 171.721 26.3112C152.106 8.71954 126.501 -0.682412 100.172 0.0386039C73.8423 0.75962 48.7895 11.5488 30.1648 30.1877C11.54 48.8265 0.759043 73.8984 0.0385746 100.248C-0.681894 126.597 8.71292 152.222 26.2913 171.852C43.8696 191.482 68.2953 203.626 94.546 205.787C120.797 207.948 146.877 199.961 167.424 183.47L209.535 225.613C210.599 226.686 211.865 227.538 213.259 228.119C214.654 228.701 216.149 229 217.66 229C219.171 229 220.666 228.701 222.061 228.119C223.455 227.538 224.721 226.686 225.785 225.613C227.847 223.477 229 220.623 229 217.654C229 214.684 227.847 211.83 225.785 209.694ZM103.228 183.47C87.3852 183.47 71.8982 178.768 58.7254 169.96C45.5527 161.151 35.2858 148.631 29.223 133.984C23.1602 119.336 21.5739 103.217 24.6647 87.6673C27.7555 72.1172 35.3845 57.8334 46.587 46.6224C57.7895 35.4114 72.0624 27.7766 87.6007 24.6834C103.139 21.5903 119.245 23.1778 133.882 29.2452C148.519 35.3126 161.029 45.5873 169.831 58.7701C178.632 71.9528 183.33 87.4516 183.33 103.306C183.33 124.567 174.891 144.957 159.869 159.99C144.847 175.024 124.472 183.47 103.228 183.47Z" fill="#D52A33"/>
</svg>
